<?xml version="1.0" encoding="UTF-8" standalone="no"?><!DOCTYPE svg PUBLIC "-//W3C//DTD SVG 1.1//EN" "http://www.w3.org/Graphics/SVG/1.1/DTD/svg11.dtd"><svg width="100%" height="100%" viewBox="0 0 395 94" version="1.1" xmlns="http://www.w3.org/2000/svg" xmlns:xlink="http://www.w3.org/1999/xlink" xml:space="preserve" xmlns:serif="http://www.serif.com/" style="fill-rule:evenodd;clip-rule:evenodd;stroke-linejoin:round;stroke-miterlimit:2;"><rect id="Artboard1" x="0" y="0" width="395" height="93.659" style="fill:none;"/><clipPath id="_clip1"><rect id="Artboard11" serif:id="Artboard1" x="0" y="0" width="395" height="93.659"/></clipPath><g clip-path="url(#_clip1)"><g><g><path d="M11.112,68.291c2.082,0 3.867,0.908 5.136,2.177l2.627,-2.781c-1.903,-1.842 -4.591,-3.019 -7.734,-3.019c-6.582,0 -11.141,4.803 -11.141,10.872c0,6.069 4.62,10.871 11.201,10.871c3.867,0 7.007,-1.658 8.881,-4.045l-2.809,-2.506c-1.236,1.598 -3.231,2.928 -5.977,2.928c-4.078,0 -7.222,-3.141 -7.222,-7.248c0,-4.016 3.023,-7.249 7.038,-7.249Zm16.018,8.303c0.544,-0.751 1.902,-1.808 3.561,-1.808c0.908,0 1.693,0.3 2.208,0.813c0.541,0.545 0.874,1.302 0.874,2.751l0,7.759l3.927,0l0,-7.46c0,-2.505 -0.544,-3.985 -1.51,-5.133c-1.208,-1.448 -3.051,-2.353 -5.075,-2.353c-1.509,0 -2.9,0.513 -3.985,1.358l0,-7.853l-3.925,0l0,21.441l3.925,0l0,-9.515Zm24.605,-5.312c-0.423,-0.063 -0.756,-0.119 -1.329,-0.119c-1.781,0 -3.38,0.692 -4.257,1.781l0,-1.48l-3.775,0l0,14.645l3.925,0l0,-9.208c0.483,-0.88 1.842,-2.115 3.566,-2.115c0.572,0 1.146,0.059 1.418,0.15l0.452,-3.654Zm7.182,0.182l-3.927,0l0,14.645l3.927,0l0,-14.645Zm-4.53,-5.197c0,1.42 1.148,2.51 2.567,2.51c1.418,0 2.565,-1.09 2.565,-2.51c0,-1.42 -1.147,-2.506 -2.565,-2.506c-1.419,0 -2.567,1.086 -2.567,2.506Zm8.029,18.178c1.722,1.271 3.867,1.966 5.89,1.966c3.079,0 5.826,-1.721 5.826,-4.53c0,-5.074 -7.095,-4.318 -7.095,-6.223c0,-0.75 0.907,-1.173 1.993,-1.173c1.058,0 2.054,0.451 2.811,0.995l1.839,-2.841c-0.967,-0.753 -3.048,-1.476 -4.952,-1.476c-2.898,0 -5.618,1.749 -5.618,4.559c0,4.71 7.099,3.925 7.099,6.131c0,0.722 -0.817,1.236 -1.874,1.236c-1.481,0 -3.021,-0.541 -4.018,-1.449l-1.901,2.805Zm26.3,-1.657c-0.273,0.059 -1.026,0.15 -1.599,0.15c-0.969,0 -1.601,-0.272 -1.992,-0.722c-0.334,-0.395 -0.484,-0.936 -0.484,-1.843l0,-5.587l4.83,0l0,-3.322l-4.83,0l0,-4.08l-3.927,0l0,4.08l-4.075,0l0,3.322l4.075,0l0,5.131c0,2.086 0.333,3.384 1.087,4.379c0.997,1.329 2.718,2.115 5.072,2.115c0.756,0 1.936,-0.119 2.448,-0.302l-0.605,-3.321Zm3.392,-3.985c0,4.226 3.351,7.608 7.79,7.608c4.441,0 7.791,-3.382 7.791,-7.608c0,-4.23 -3.35,-7.64 -7.791,-7.64c-4.439,0 -7.79,3.41 -7.79,7.64Zm3.923,0c0,-2.209 1.574,-4.017 3.867,-4.017c2.297,0 3.866,1.808 3.866,4.017c0,2.205 -1.569,3.985 -3.866,3.985c-2.293,0 -3.867,-1.78 -3.867,-3.985Zm15.519,14.553l3.926,0l0,-8.275c1.176,0.907 2.444,1.33 3.925,1.33c2.175,0 4.256,-0.964 5.558,-2.479c1.146,-1.328 1.841,-3.137 1.841,-5.129c0,-4.318 -3.203,-7.64 -7.188,-7.64c-1.659,0 -3.139,0.541 -4.289,1.476l0,-1.175l-3.773,0l0,21.892Zm3.926,-16.762c0.814,-1.085 2.112,-1.808 3.624,-1.808c2.293,0 3.774,1.902 3.774,4.017c0,2.293 -1.66,3.985 -3.863,3.985c-1.482,0 -2.781,-0.725 -3.535,-1.815l0,-4.379Zm19.125,0c0.541,-0.751 1.903,-1.808 3.562,-1.808c0.906,0 1.691,0.3 2.205,0.813c0.544,0.545 0.877,1.302 0.877,2.751l0,7.759l3.924,0l0,-7.46c0,-2.505 -0.545,-3.985 -1.509,-5.133c-1.208,-1.448 -3.049,-2.353 -5.074,-2.353c-1.51,0 -2.898,0.513 -3.985,1.358l0,-7.853l-3.929,0l0,21.441l3.929,0l0,-9.515Zm27.478,-11.624l-2.867,0l0,21.139l4.075,0l0,-11.779l5.074,8.308l2.839,0l5.075,-8.308l0,11.779l4.074,0l0,-21.139l-2.867,0l-7.702,12.653l-7.701,-12.653Zm33.841,16.579c-0.695,0.754 -2.024,1.689 -3.683,1.689c-2.086,0 -3.745,-1.417 -3.956,-3.472l10.144,0c0.062,-0.329 0.093,-0.722 0.093,-1.117c0,-4.076 -2.87,-7.486 -6.916,-7.486c-4.351,0 -7.128,3.56 -7.128,7.64c0,4.589 3.293,7.608 7.673,7.608c2.264,0 4.587,-0.936 6.007,-2.628l-2.234,-2.234Zm-7.46,-4.648c0.182,-1.33 1.512,-2.571 3.142,-2.571c1.598,0 2.777,1.269 2.899,2.571l-6.041,0Zm23.327,-5.619c-0.424,-0.063 -0.757,-0.119 -1.33,-0.119c-1.781,0 -3.383,0.692 -4.257,1.781l0,-1.48l-3.776,0l0,14.645l3.926,0l0,-9.208c0.485,-0.88 1.842,-2.115 3.563,-2.115c0.572,0 1.147,0.059 1.419,0.15l0.455,-3.654Zm7.176,0.182l-3.925,0l0,14.645l3.925,0l0,-14.645Zm-4.527,-5.197c0,1.42 1.15,2.51 2.569,2.51c1.42,0 2.565,-1.09 2.565,-2.51c0,-1.42 -1.145,-2.506 -2.565,-2.506c-1.419,0 -2.569,1.086 -2.569,2.506Zm19.624,14.706c-0.757,1.09 -2.051,1.815 -3.535,1.815c-2.202,0 -3.866,-1.692 -3.866,-3.985c0,-2.115 1.483,-4.017 3.779,-4.017c1.508,0 2.803,0.723 3.622,1.808l0,4.379Zm3.926,-9.509l-3.775,0l0,1.175c-1.145,-0.935 -2.628,-1.476 -4.289,-1.476c-3.985,0 -7.186,3.322 -7.186,7.64c0,1.992 0.725,3.801 1.871,5.129c1.301,1.515 3.353,2.479 5.525,2.479c1.482,0 2.871,-0.451 4.079,-1.48l0,1.178l3.775,0l0,-14.645Zm8.819,14.645l0,-9.515c0.545,-0.751 1.903,-1.808 3.564,-1.808c0.907,0 1.691,0.3 2.205,0.813c0.544,0.545 0.875,1.302 0.875,2.751l0,7.759l3.93,0l0,-7.46c0,-2.505 -0.545,-3.985 -1.514,-5.133c-1.208,-1.448 -3.047,-2.353 -5.075,-2.353c-1.629,0 -3.015,0.573 -4.135,1.476l0,-1.175l-3.772,0l0,14.645l3.922,0Zm22.499,-2.871c2.174,1.996 4.801,3.173 7.64,3.173c3.804,0 7.157,-2.597 7.157,-6.341c0,-7.126 -9.753,-6.069 -9.753,-9.485c0,-1.63 1.72,-2.294 3.258,-2.294c1.389,0 2.81,0.607 3.654,1.393l2.115,-3.022c-1.99,-1.48 -3.985,-1.994 -6.132,-1.994c-3.5,0 -6.972,2.176 -6.972,5.951c0,2.387 1.33,3.832 2.987,4.801c2.84,1.659 6.767,1.993 6.767,4.709c0,1.539 -1.267,2.659 -3.081,2.659c-1.934,0 -3.774,-0.997 -4.981,-2.327l-2.659,2.777Zm28.274,-0.45c-0.276,0.059 -1.03,0.15 -1.601,0.15c-0.971,0 -1.602,-0.272 -1.997,-0.722c-0.331,-0.395 -0.481,-0.936 -0.481,-1.843l0,-5.587l4.829,0l0,-3.322l-4.829,0l0,-4.08l-3.93,0l0,4.08l-4.072,0l0,3.322l4.072,0l0,5.131c0,2.086 0.335,3.384 1.092,4.379c0.998,1.329 2.716,2.115 5.071,2.115c0.757,0 1.933,-0.119 2.446,-0.302l-0.6,-3.321Zm8.628,-11.324l-3.927,0l0,14.645l3.927,0l0,-14.645Zm-4.53,-5.197c0,1.42 1.147,2.51 2.565,2.51c1.42,0 2.568,-1.09 2.568,-2.51c0,-1.42 -1.148,-2.506 -2.568,-2.506c-1.418,0 -2.565,1.086 -2.565,2.506Zm19.926,-1.629c-0.813,-0.213 -1.538,-0.273 -2.323,-0.273c-1.993,0 -3.532,0.726 -4.562,1.724c-1.022,0.995 -1.567,2.416 -1.567,4.768l0,0.607l-3.776,0l0,3.322l3.776,0l0,11.323l3.923,0l0,-11.323l4.529,0l0,-3.322l-4.529,0l0,-0.455c0,-1.359 0.213,-1.901 0.544,-2.324c0.483,-0.575 1.239,-0.844 2.203,-0.844c0.365,0 0.845,0.056 1.179,0.15l0.603,-3.353Zm14.679,18.15c-0.275,0.059 -1.026,0.15 -1.602,0.15c-0.963,0 -1.6,-0.272 -1.996,-0.722c-0.328,-0.395 -0.481,-0.936 -0.481,-1.843l0,-5.587l4.836,0l0,-3.322l-4.836,0l0,-4.08l-3.923,0l0,4.08l-4.079,0l0,3.322l4.079,0l0,5.131c0,2.086 0.331,3.384 1.086,4.379c0.997,1.329 2.717,2.115 5.073,2.115c0.755,0 1.931,-0.119 2.447,-0.302l-0.604,-3.321Zm14.659,-11.324l0,9.509c-0.544,0.695 -1.751,1.815 -3.412,1.815c-0.757,0 -1.602,-0.24 -2.206,-0.907c-0.454,-0.513 -0.726,-1.176 -0.726,-2.506l0,-7.911l-3.923,0l0,7.76c0,2.172 0.538,3.686 1.477,4.831c1.148,1.42 2.96,2.356 4.983,2.356c1.418,0 2.809,-0.451 3.957,-1.48l0,1.178l3.773,0l0,-14.645l-3.923,0Zm12.746,14.645l0,-9.515c0.544,-0.751 1.901,-1.808 3.559,-1.808c0.908,0 1.696,0.3 2.206,0.813c0.544,0.545 0.878,1.302 0.878,2.751l0,7.759l3.924,0l0,-7.46c0,-2.505 -0.541,-3.985 -1.509,-5.133c-1.207,-1.448 -3.049,-2.353 -5.073,-2.353c-1.633,0 -3.019,0.573 -4.136,1.476l0,-1.175l-3.779,0l0,14.645l3.93,0Zm29.418,-14.645l-3.776,0l0,1.175c-1.148,-0.935 -2.624,-1.476 -4.285,-1.476c-3.99,0 -7.19,3.322 -7.19,7.64c0,1.992 0.698,3.801 1.843,5.129c1.296,1.515 3.381,2.479 5.556,2.479c1.482,0 2.749,-0.423 3.926,-1.33l0,0.484c0,1.874 -0.304,2.779 -0.907,3.442c-0.664,0.785 -1.721,1.179 -2.988,1.179c-2.415,0 -3.773,-1.267 -4.562,-2.114l-2.473,2.568c1.448,1.689 4.17,3.019 7.035,3.019c2.809,0 5.162,-1.089 6.495,-2.932c0.872,-1.235 1.326,-2.806 1.326,-5.433l0,-13.83Zm-3.926,9.509c-0.754,1.09 -2.055,1.815 -3.532,1.815c-2.205,0 -3.866,-1.692 -3.866,-3.985c0,-2.115 1.476,-4.017 3.775,-4.017c1.509,0 2.809,0.723 3.623,1.808l0,4.379Z" style="fill:#030404;fill-rule:nonzero;"/><path d="M253.893,31.362c-2.052,3.125 -6.156,6.253 -11.337,6.253c-7.714,0 -13.088,-5.472 -13.088,-12.898c0,-7.23 5.468,-12.992 12.801,-12.992c4.59,0 8.402,2.343 10.936,5.666l8.992,-7.915c-4.396,-5.668 -11.722,-9.476 -19.928,-9.476c-14.462,0 -25.505,10.944 -25.505,24.717c0,13.681 10.749,24.622 25.405,24.622c8.891,0 15.923,-3.227 21.492,-10.65l-9.768,-7.327Zm29.72,17l0,-30.775c1.758,-2.248 5.669,-5.862 11.04,-5.862c2.443,0 5.176,0.783 7.135,2.932c1.465,1.657 2.343,3.807 2.343,8.105l0,25.6l12.698,0l0,-25.109c0,-1.955 -0.194,-3.713 -0.39,-5.275c1.661,-2.446 5.959,-6.253 11.434,-6.253c2.439,0 5.173,0.783 7.129,2.932c1.467,1.657 2.342,3.807 2.342,8.105l0,25.6l12.704,0l0,-25.109c0,-7.035 -1.76,-11.918 -4.785,-15.632c-3.814,-4.689 -10.064,-7.621 -16.609,-7.621c-7.036,0 -12.998,3.419 -16.805,7.427c-3.713,-4.495 -9.479,-7.427 -15.923,-7.427c-4.595,0 -9.091,1.465 -12.801,4.786l0,-3.81l-12.213,0l0,47.386l12.701,0Zm73.478,-5.375c5.574,4.104 12.506,6.352 19.052,6.352c9.966,0 18.857,-5.571 18.857,-14.655c0,-16.414 -22.962,-13.971 -22.962,-20.127c0,-2.441 2.934,-3.811 6.451,-3.811c3.421,0 6.643,1.464 9.087,3.225l5.959,-9.185c-3.128,-2.443 -9.866,-4.786 -16.022,-4.786c-9.38,0 -18.17,5.666 -18.17,14.751c0,15.244 22.956,12.704 22.956,19.833c0,2.346 -2.64,4.007 -6.056,4.007c-4.79,0 -9.771,-1.758 -12.993,-4.689l-6.159,9.085Z" style="fill:#030404;fill-rule:nonzero;"/></g></g></g></svg>