<?xml version="1.0" encoding="UTF-8" standalone="no"?>
<!-- Created with Inkscape (http://www.inkscape.org/) -->
<svg xmlns:dc="http://purl.org/dc/elements/1.1/" xmlns:cc="http://creativecommons.org/ns#" xmlns:rdf="http://www.w3.org/1999/02/22-rdf-syntax-ns#" xmlns:svg="http://www.w3.org/2000/svg" xmlns="http://www.w3.org/2000/svg" xmlns:sodipodi="http://sodipodi.sourceforge.net/DTD/sodipodi-0.dtd" xmlns:inkscape="http://www.inkscape.org/namespaces/inkscape" width="293.56274" height="169.72697" id="svg10858" version="1.1" inkscape:version="0.48.4 r9939" sodipodi:docname="logo.svg" inkscape:export-filename="/home/juliane/Starship Factory/wiki/Vereinsgruendung/Logo/logo.png" inkscape:export-xdpi="300" inkscape:export-ydpi="300">
  <defs id="defs10860"/>
  <sodipodi:namedview id="base" pagecolor="#000000" bordercolor="#666666" borderopacity="1.0" inkscape:pageopacity="0" inkscape:pageshadow="2" inkscape:zoom="1.141153" inkscape:cx="146.78137" inkscape:cy="22.948984" inkscape:document-units="px" inkscape:current-layer="layer1" showgrid="false" inkscape:window-width="796" inkscape:window-height="861" inkscape:window-x="800" inkscape:window-y="18" inkscape:window-maximized="0" fit-margin-top="0" fit-margin-left="0" fit-margin-right="0" fit-margin-bottom="0" showguides="true"/>
  <metadata id="metadata10863">
    <rdf:RDF>
      <cc:Work rdf:about="">
        <dc:format>image/svg+xml</dc:format>
        <dc:type rdf:resource="http://purl.org/dc/dcmitype/StillImage"/>
        <dc:title/>
      </cc:Work>
    </rdf:RDF>
  </metadata>
  <g inkscape:label="Layer 1" inkscape:groupmode="layer" id="layer1" transform="translate(-93.218542,-217.01276)">
    <g id="g11153" inkscape:export-xdpi="300" inkscape:export-ydpi="300" transform="translate(0,-61.916517)">
      <g id="g10954">
        <path inkscape:connector-curvature="0" style="color:#000000;fill:#3e5f81;fill-opacity:1;fill-rule:nonzero;stroke:none;stroke-width:3.54330707;marker:none;visibility:visible;display:inline;overflow:visible;enable-background:accumulate" d="m 218.4375,278.9375 c -17.98908,0.28366 -35.85349,6.57434 -49.9375,17.65625 -0.0417,0.0312 -0.0834,0.0625 -0.125,0.0937 -0.10499,0.0835 -0.20793,0.166 -0.3125,0.25 -0.69014,0.55436 -1.35967,1.11126 -2.03125,1.6875 -0.19019,0.16319 -0.37383,0.33508 -0.5625,0.5 -0.72942,0.638 -1.4492,1.27462 -2.15625,1.9375 -0.091,0.0853 -0.19065,0.16435 -0.28125,0.25 -0.41,0.38759 -0.81565,0.79219 -1.21875,1.1875 -0.0523,0.0513 -0.10403,0.1048 -0.15625,0.15625 -1.74704,1.71631 -3.41595,3.5104 -5,5.375 l -5.625,-1.9375 -5.875,-2.03125 -0.78125,-0.28125 -18.21875,-6.3125 -1.96875,5.65625 12.59375,4.34375 -12.15625,5.90625 0.0312,0.0312 1.8125,3.75 2.96875,6.125 -9.875,4.78125 4.78125,9.875 -9.875,4.8125 9.59375,19.75 13.875,4.78125 c 1.42997,13.90405 6.56604,27.41887 14.75,38.8125 0.30893,0.10624 0.62701,0.20751 0.9375,0.3125 1.23422,0.41726 2.49193,0.82129 3.75,1.21875 0.35678,0.11273 0.70386,0.23261 1.0625,0.34375 1.86912,0.57922 3.77016,1.15164 5.6875,1.6875 0.0728,0.0204 0.1459,0.0422 0.21875,0.0625 1.57309,0.43807 3.14691,0.84109 4.75,1.25 2.31068,0.58939 4.66353,1.15891 7.03125,1.6875 1.92039,0.42872 3.8583,0.83017 5.8125,1.21875 0.125,0.0249 0.24987,0.0378 0.375,0.0625 1.5711,0.30976 3.15917,0.62243 4.75,0.90625 1.08105,0.19287 2.1605,0.38163 3.25,0.5625 1.12205,0.18627 2.24457,0.35772 3.375,0.53125 0.6358,0.0977 1.26795,0.21887 1.90625,0.3125 1.94542,0.28514 3.90829,0.53366 5.875,0.78125 -10.3907,-3.86387 -20.24445,-10.0452 -28.65625,-17.84375 l 1.21875,-1.15625 1.375,-1.28125 2.5938,-2.46865 c 1.42447,1.30198 2.8996,2.55113 4.40625,3.75 0.15152,0.12053 0.31647,0.2243 0.46875,0.34375 0.70091,0.54978 1.40857,1.09871 2.125,1.625 0.83768,0.61524 1.67413,1.23095 2.53125,1.8125 0.92361,0.62674 1.86858,1.22644 2.8125,1.8125 0.10317,0.064 0.2091,0.12399 0.3125,0.1875 1.11708,0.68615 2.23354,1.34248 3.375,1.96875 0.81838,0.4495 1.63956,0.8951 2.46875,1.3125 0.74802,0.37654 1.52554,0.74421 2.28125,1.09375 0.84262,0.38923 1.68044,0.73903 2.53125,1.09375 0.16837,0.0703 0.33134,0.14985 0.5,0.21875 0.91473,0.37369 1.82794,0.73037 2.75,1.0625 0.76539,0.2757 1.54817,0.5621 2.375,0.84375 0.074,0.0252 0.14419,0.0373 0.21875,0.0625 0.76275,0.25845 1.55768,0.52161 2.375,0.78125 0.14881,0.0471 0.28682,0.0779 0.4375,0.125 0.78096,0.24509 1.57396,0.50726 2.40625,0.75 0.44818,0.13032 0.91145,0.246 1.375,0.375 0.84457,0.23503 1.69664,0.45888 2.59375,0.6875 1.14544,0.2919 2.3278,0.56717 3.5625,0.84375 1.19423,0.26752 2.43728,0.53309 3.71875,0.78125 0.11331,0.0219 0.22974,0.0407 0.34375,0.0625 1.26273,0.24113 2.55606,0.47004 3.90625,0.6875 1.3959,0.22482 2.85062,0.46177 4.34375,0.65625 0.031,0.004 0.0627,-0.004 0.0937,0 2.68612,0.34812 5.54164,0.64941 8.5625,0.875 0.13339,0.01 0.27221,0.0215 0.40625,0.0312 0.83435,0.0604 1.67129,0.10662 2.53125,0.15625 1.23213,0.0711 2.49485,0.14011 3.78125,0.1875 0.11719,0.004 0.22609,-0.004 0.34375,0 1.44275,0.05 2.95492,0.0759 4.46875,0.0937 0.81056,0.01 1.60608,0.0314 2.4375,0.0312 1.3406,-1.5e-4 2.66673,-0.004 4.0625,-0.0312 1.2473,-0.0238 2.48809,-0.0784 3.78125,-0.125 1.01037,-0.0364 2.05469,-0.0741 3.09375,-0.125 1.76024,-0.086 3.53255,-0.18276 5.375,-0.3125 0.042,-0.003 0.083,0.003 0.125,0 1.42383,-0.1386 2.83633,-0.28296 4.25,-0.4375 0.38501,-0.043 0.77186,-0.0805 1.15625,-0.125 6.60084,-6.31418 12.11932,-13.73229 16.25,-21.84375 l -0.0937,0 0,-71.90625 0.0312,0 c -6.32518,-12.4506 -15.95282,-23.24226 -27.65625,-31 -0.94098,-0.6174 -1.87836,-1.23291 -2.84375,-1.8125 -0.0602,-0.0361 -0.12724,-0.0578 -0.1875,-0.0937 -0.0729,-0.0418 -0.14577,-0.0834 -0.21875,-0.125 -1.11989,-0.66206 -2.25574,-1.29772 -3.40625,-1.90625 -0.087,-0.0462 -0.16655,-0.10446 -0.25,-0.15625 -0.0951,-0.0501 -0.18591,-0.10651 -0.28125,-0.15625 -0.008,-0.004 -0.0231,0.004 -0.0312,0 -11.05029,-5.81198 -23.45914,-9.0786 -35.96875,-9.46875 -1.19934,-0.0348 -2.39448,-0.0502 -3.59375,-0.0312 z m -69.40625,36.03125 17.34375,6 -5.625,16.3125 -5.8125,-2 c -0.13296,0.6992 -0.24034,1.39552 -0.34375,2.09375 -0.0562,0.37909 -0.10871,0.74625 -0.15625,1.125 -0.0576,0.45773 -0.11108,0.91789 -0.15625,1.375 -0.0164,0.1672 -0.0477,0.33289 -0.0625,0.5 -0.0761,0.86004 -0.1232,1.73643 -0.15625,2.59375 -0.0354,0.91926 -0.0441,1.83465 -0.0312,2.75 1.4e-4,0.0105 -1.5e-4,0.0208 0,0.0312 0.001,0.0838 -0.002,0.16626 0,0.25 0.0169,0.87265 0.0654,1.72544 0.125,2.59375 0.003,0.0416 -0.003,0.0834 0,0.125 0.0461,0.65614 0.11756,1.31548 0.1875,1.96875 0.0393,0.36488 0.0784,0.72984 0.125,1.09375 0.0921,0.72309 0.19203,1.43728 0.3125,2.15625 0.10151,0.60582 0.2225,1.20987 0.34375,1.8125 0.0333,0.16568 0.0589,0.33457 0.0937,0.5 0.0744,0.35292 0.13774,0.71077 0.21875,1.0625 0.1688,0.73293 0.3654,1.46007 0.5625,2.1875 0.0363,0.13417 0.0565,0.27228 0.0937,0.40625 0.19392,0.69722 0.40569,1.37078 0.625,2.0625 0.13928,0.43936 0.28821,0.87551 0.4375,1.3125 0.17496,0.51193 0.374,1.02269 0.5625,1.53125 0.0928,0.25046 0.18521,0.5004 0.28125,0.75 0.0434,0.11287 0.0809,0.23105 0.125,0.34375 0.25399,0.64919 0.50582,1.29443 0.78125,1.9375 -0.9652,0.75029 -1.9163,1.49713 -2.875,2.25 -0.9587,0.75286 -1.9248,1.51174 -2.875,2.28125 -0.34522,-0.76159 -0.68129,-1.54024 -1,-2.3125 -0.28974,-0.70243 -0.57651,-1.41423 -0.84375,-2.125 -0.0579,-0.15401 -0.0995,-0.31437 -0.15625,-0.46875 -0.21696,-0.5893 -0.42389,-1.18664 -0.625,-1.78125 -0.29213,-0.86449 -0.58612,-1.71884 -0.84375,-2.59375 -0.009,-0.0313 -0.0221,-0.0624 -0.0312,-0.0937 -0.30329,-1.03552 -0.55916,-2.07629 -0.8125,-3.125 -0.19027,-0.78762 -0.37001,-1.58065 -0.53125,-2.375 -0.1232,-0.60489 -0.23774,-1.20402 -0.34375,-1.8125 -0.27039,-1.55197 -0.4702,-3.11534 -0.625,-4.6875 -0.0122,-0.12474 -0.0198,-0.25015 -0.0312,-0.375 -0.0423,-0.45779 -0.0928,-0.91578 -0.125,-1.375 -0.0462,-0.66455 -0.0691,-1.33274 -0.0937,-2 -0.0102,-0.27115 -0.0247,-0.54094 -0.0312,-0.8125 -0.0135,-0.57097 -0.0338,-1.14613 -0.0312,-1.71875 0.002,-0.52012 0.0156,-1.0412 0.0312,-1.5625 0.0257,-0.84527 0.0632,-1.68337 0.125,-2.53125 0.0528,-0.73134 0.13853,-1.45472 0.21875,-2.1875 0.0228,-0.20794 0.0374,-0.41696 0.0625,-0.625 0.078,-0.64901 0.18118,-1.28778 0.28125,-1.9375 0.0514,-0.33308 0.099,-0.66678 0.15625,-1 0.10903,-0.63567 0.21314,-1.27034 0.34375,-1.90625 l -4.875,-1.6875 5.65625,-16.3125 z m 92.84375,8.71875 43.125,0.0312 0,14.34375 -28.78125,0 0,14.375 28.78125,0.0312 0,43.09375 -43.15625,0.0312 0,-14.375 28.75,0 0,-14.375 -28.75,-0.0312 0.0312,-43.125 z m -73.03125,45.4375 2.6875,22.5625 -20.625,-9.9375 c 1.1212,-0.79026 2.2537,-1.58472 3.375,-2.375 l 7.90625,-0.65625 3.28125,-7.25 c 1.1213,-0.79028 2.2538,-1.55347 3.375,-2.34375 z M 157.125,411.78125 c 12.70729,14.6964 30.88278,24.66069 50.21875,27.53125 1.9109,0.29011 3.823,0.50129 5.75,0.65625 0.77004,0.0628 1.54097,0.11493 2.3125,0.15625 2.3277,0.12183 4.67,0.16692 7,0.0937 0.041,-0.001 0.084,10e-4 0.125,0 0.0312,2e-5 0.0625,2e-5 0.0937,0 2.01388,-0.0684 4.02701,-0.25003 6.03125,-0.46875 l -6.1875,-11.09375 4.125,0 6.875,2 6.84375,-2 c 1.3718,-0.001 2.7532,9.9e-4 4.125,0 l -5,9.28125 c 0.48346,-0.11642 0.956,-0.24926 1.4375,-0.375 l 0,-0.0625 c 11.09408,-2.94213 21.54928,-8.21798 30.46875,-15.375 -0.28068,0.0275 -0.56281,0.0358 -0.84375,0.0625 -1.90381,0.18099 -3.80446,0.35404 -5.71875,0.5 -1.01825,0.0781 -2.04183,0.15047 -3.0625,0.21875 -1.24765,0.0828 -2.4993,0.15067 -3.75,0.21875 -1.15586,0.0636 -2.31083,0.13649 -3.46875,0.1875 -1.19699,0.052 -2.39512,0.0864 -3.59375,0.125 -1.11615,0.0365 -2.22664,0.069 -3.34375,0.0937 -0.21881,0.005 -0.43742,0.0269 -0.65625,0.0312 -2.00927,0.0404 -4.02122,0.0602 -6.03125,0.0625 -0.0937,1e-4 -0.1875,-2e-5 -0.28125,0 0,0 -7.1205,0.0591 -7.0625,-0.0625 -1.2847,-0.0278 -2.56105,-0.0505 -3.84375,-0.0937 -5.69292,-0.19193 -11.35329,-0.56866 -16.96875,-1.0625 -0.0213,0.007 -0.0413,0.0239 -0.0625,0.0312 -0.42932,-0.0379 -0.85258,-0.0854 -1.28125,-0.125 -1.95295,-0.18033 -3.90588,-0.37698 -5.84375,-0.59375 -0.13614,-0.0153 -0.27019,-0.0471 -0.40625,-0.0625 -2.07781,-0.2353 -4.1304,-0.50412 -6.1875,-0.78125 -0.48923,-0.066 -0.9808,-0.11914 -1.46875,-0.1875 -1.56197,-0.21857 -3.10839,-0.44477 -4.65625,-0.6875 -1.01408,-0.15918 -2.02371,-0.33046 -3.03125,-0.5 -1.1728,-0.19715 -2.33668,-0.41384 -3.5,-0.625 -1.15891,-0.21059 -2.31987,-0.40053 -3.46875,-0.625 -0.82836,-0.16166 -1.64589,-0.33113 -2.46875,-0.5 -1.3879,-0.2851 -2.78489,-0.56945 -4.15625,-0.875 -0.81571,-0.18165 -1.62796,-0.37361 -2.4375,-0.5625 -1.46595,-0.34225 -2.9304,-0.6966 -4.375,-1.0625 -0.84496,-0.21384 -1.66272,-0.43433 -2.5,-0.65625 -2.20793,-0.58552 -4.3804,-1.20224 -6.53125,-1.84375 -0.31315,-0.0934 -0.62563,-0.18667 -0.9375,-0.28125 -0.75954,-0.23033 -1.52941,-0.45013 -2.28125,-0.6875 z" id="rect10302-4-4-3"/>
        <path style="font-size:medium;font-style:normal;font-variant:normal;font-weight:normal;font-stretch:normal;text-indent:0;text-align:start;text-decoration:none;line-height:normal;letter-spacing:normal;word-spacing:normal;text-transform:none;direction:ltr;block-progression:tb;writing-mode:lr-tb;text-anchor:start;baseline-shift:baseline;color:#000000;fill:#ff6600;fill-opacity:1;fill-rule:nonzero;stroke:none;stroke-width:6.00159264;marker:none;visibility:visible;display:inline;overflow:visible;enable-background:accumulate;font-family:Sans;-inkscape-font-specification:Sans" d="m 258,288.4375 c 2.6852,1.39982 5.2984,2.94469 7.8125,4.625 29.6427,2.37026 56.15645,8.82784 76.46875,18 13.0181,5.87834 23.5033,12.87576 30.625,20.5 7.1218,7.62423 10.8261,15.70031 10.8125,23.96875 -0.011,6.82805 -2.6224,13.76264 -8,20.59375 l 0.15625,0.21875 c -8.0439,10.28052 -22.1249,19.91639 -41.125,27.34375 -18.7974,7.34812 -40.67905,12.09403 -63.46875,14.3125 -0.042,0.003 -0.083,-0.003 -0.125,0 -34.4528,2.42597 -54.34745,-3.02634 -66.59375,-7.4375 -9.531,-3.43311 -18.7152,-9.10876 -26.5625,-16.28125 l -2.59375,2.46875 -2.59375,2.4375 c 8.4118,7.79855 18.26555,13.97988 28.65625,17.84375 -26.5704,-3.34494 -51.333,-10.12057 -70.625,-20.21875 -13.0083,-6.80905 -22.2741,-14.4768 -27.875,-22.28125 -4.4746,-6.23514 -6.6169,-12.41376 -6.6875,-18.5625 l 0.0312,0 c 0.014,-8.2684 3.724,-16.38283 10.875,-24.03125 4.9288,-5.27163 11.43645,-10.25972 19.28125,-14.78125 l -1.8125,-3.75 c -6.2196,3.61009 -11.5315,7.47397 -15.9375,11.53125 -8.5067,7.83336 -13.66555,16.45539 -15.09375,25.5625 -0.2678,1.70758 -0.41175,3.44313 -0.40625,5.15625 1e-4,0.0422 -3e-4,0.0828 0,0.125 -4e-4,0.0522 1e-4,0.10396 0,0.15625 0.088,7.32815 2.66365,14.62358 7.53125,21.40625 3.0343,4.22806 6.95655,8.29944 11.78125,12.1875 4.8246,3.88806 10.5509,7.58865 17.1875,11.0625 26.5464,13.8954 62.76245,21.62066 99.96875,22.875 1.2827,0.0432 2.55905,0.0659 3.84375,0.0937 -0.058,0.12163 7.0625,0.0625 7.0625,0.0625 33.6708,-0.008 67.464,-5.26713 95,-16.03125 24.4173,-9.545 41.34355,-22.39658 48.09375,-37.5 L 383.5,369.9375 c 2.1337,-4.6592 3.27325,-9.47576 3.28125,-14.375 0.016,-9.88377 -4.41715,-19.07184 -11.96875,-27.15625 -7.5516,-8.08441 -18.3168,-15.23758 -31.5625,-21.21875 -22.4979,-10.15903 -52.1674,-16.96312 -85.25,-18.75 z m -89.5,8.15625 c -8.3095,2.14046 -16.12775,4.65677 -23.34375,7.46875 l 5.875,2.03125 c 3.4216,-1.21647 6.9624,-2.36089 10.625,-3.4375 2.1733,-2.14121 4.44275,-4.17375 6.84375,-6.0625 z M 152.53125,319.875 c -8.1587,17.8307 -6.6717,36.40263 0.625,52.5 0.9502,-0.76951 1.9163,-1.52839 2.875,-2.28125 0.9587,-0.75287 1.9098,-1.49971 2.875,-2.25 -6.0349,-14.09035 -6.9904,-29.69141 0,-44.96875 l -6.375,-3 z m 89.34375,3.8125 -0.0312,43.125 28.75,0.0312 0,14.375 -28.75,0 0,14.375 43.15625,-0.0312 0,-43.09375 -28.78125,-0.0312 0,-14.375 28.78125,0 0,-14.34375 -43.125,-0.0312 z m 50.96875,0 0,71.90625 14.375,0 0,-28.75 28.71875,-0.0312 0,-14.375 -28.71875,0 0,-14.375 28.71875,0 0,-14.375 -43.09375,0 z m -124,45.4375 c -1.1212,0.79028 -2.2537,1.55347 -3.375,2.34375 l -3.28125,7.25 -7.90625,0.65625 c -1.1213,0.79028 -2.2538,1.58474 -3.375,2.375 l 20.625,9.9375 -2.6875,-22.5625 z m 53.625,59.53125 11.15625,20 10.8125,-20 c -1.3718,9.9e-4 -2.7532,-10e-4 -4.125,0 l -6.84375,2 -6.875,-2 -4.125,0 z" id="path10285-9-9-8" inkscape:connector-curvature="0"/>
      </g>
    </g>
  </g>
</svg>